<?xml version="1.0" standalone="no"?>
<!DOCTYPE svg PUBLIC "-//W3C//DTD SVG 20010904//EN"
 "http://www.w3.org/TR/2001/REC-SVG-20010904/DTD/svg10.dtd">
<svg version="1.0" xmlns="http://www.w3.org/2000/svg"
 width="200.000000pt" height="200.000000pt" viewBox="0 0 200.000000 200.000000"
 preserveAspectRatio="xMidYMid meet">
<metadata>
Created by potrace 1.11, written by Peter Selinger 2001-2013
</metadata>
<g transform="translate(0.000000,200.000000) scale(0.100000,-0.100000)"
fill="#000000" stroke="none">
<path d="M890 1939 c-92 -7 -115 -12 -201 -40 -54 -17 -159 -66 -169 -78 -3
-3 -17 -12 -32 -20 -16 -8 -26 -16 -24 -18 4 -5 41 14 66 34 80 62 368 105
470 70 45 -15 41 -32 -8 -30 -264 11 -366 -11 -516 -112 -74 -50 -205 -179
-234 -230 -6 -11 -13 -17 -17 -13 -9 8 79 133 127 181 21 21 38 41 38 45 0 12
-111 -102 -154 -158 -81 -104 -123 -191 -163 -340 -22 -82 -25 -355 -5 -440
85 -346 353 -618 697 -705 170 -43 395 -33 555 26 295 107 547 396 595 680 3
19 10 58 15 88 27 149 -7 364 -83 531 -76 164 -274 363 -443 444 -158 75 -313
101 -514 85z m147 -124 c2 -6 -25 -25 -59 -42 -35 -18 -86 -48 -113 -68 -27
-19 -53 -35 -57 -35 -14 0 -3 45 15 64 22 25 22 39 -1 27 -26 -14 -107 -92
-125 -121 -60 -96 -75 -263 -35 -378 40 -113 155 -210 298 -251 179 -50 225
-70 302 -126 119 -87 176 -265 134 -422 -49 -182 -206 -273 -471 -273 -245 0
-460 125 -622 360 -195 285 -170 709 57 973 135 157 277 246 452 286 88 19
219 23 225 6z m-1 -281 c54 -26 79 -96 52 -147 -25 -48 -56 -67 -111 -67 -59
0 -89 16 -112 60 -20 39 -19 63 4 101 39 65 101 84 167 53z m124 -201 c-1 -23
-107 -103 -136 -103 -12 0 -30 8 -39 17 -16 15 -15 18 6 34 13 10 43 23 66 30
24 6 48 18 54 25 17 20 49 18 49 -3z m180 -1078 c-45 -54 -211 -107 -329 -104
l-46 1 40 9 c22 5 65 15 95 21 30 6 91 29 135 50 86 40 127 50 105 23z m-383
-101 c-3 -3 -12 -4 -19 -1 -8 3 -5 6 6 6 11 1 17 -2 13 -5z"/>
<path d="M914 678 c-27 -13 -64 -78 -64 -112 0 -36 23 -79 56 -105 19 -15 41
-21 80 -21 45 0 57 4 83 31 57 57 55 134 -5 187 -31 26 -45 32 -83 31 -25 0
-56 -5 -67 -11z m53 -39 c15 -15 5 -39 -16 -39 -23 0 -41 19 -34 36 6 17 35
18 50 3z"/>
<path d="M414 1748 l-19 -23 25 20 c14 11 27 21 29 22 2 2 0 3 -6 3 -5 0 -18
-10 -29 -22z"/>
</g>
</svg>
